<svg width="6" height="9" viewBox="0 0 6 9" fill="none" xmlns="http://www.w3.org/2000/svg">
<mask id="path-1-outside-1_1_3" maskUnits="userSpaceOnUse" x="-1" y="-1" width="8" height="11" fill="black">
<rect fill="white" x="-1" y="-1" width="8" height="11"/>
<path d="M1.71094 0.796875H3.99609C4.23047 0.796875 4.44922 0.816406 4.65234 0.855469C4.85938 0.894531 5.02539 0.976562 5.15039 1.10156C5.2793 1.22266 5.34375 1.41016 5.34375 1.66406C5.34375 1.91797 5.2793 2.10742 5.15039 2.23242C5.02539 2.35352 4.85938 2.43359 4.65234 2.47266C4.44922 2.51172 4.23047 2.53125 3.99609 2.53125H2.60156V4.05469H3.33984C3.57422 4.05469 3.79297 4.07227 3.99609 4.10742C4.20312 4.13867 4.36914 4.2168 4.49414 4.3418C4.62305 4.46289 4.6875 4.65625 4.6875 4.92188C4.6875 5.1875 4.625 5.38281 4.5 5.50781C4.375 5.62891 4.20898 5.70703 4.00195 5.74219C3.79883 5.77344 3.57812 5.78906 3.33984 5.78906H2.60156V7.65234C2.60156 7.90625 2.58594 8.13477 2.55469 8.33789C2.52344 8.54102 2.44531 8.70312 2.32031 8.82422C2.19531 8.94141 1.99219 9 1.71094 9C1.42969 9 1.22656 8.94141 1.10156 8.82422C0.976562 8.70703 0.898438 8.54688 0.867188 8.34375C0.835938 8.14062 0.820312 7.91016 0.820312 7.65234V2.14453C0.820312 1.89062 0.835938 1.66211 0.867188 1.45898C0.898438 1.25586 0.976562 1.0957 1.10156 0.978516C1.22656 0.857422 1.42969 0.796875 1.71094 0.796875Z"/>
</mask>
<path d="M1.71094 0.796875H3.99609C4.23047 0.796875 4.44922 0.816406 4.65234 0.855469C4.85938 0.894531 5.02539 0.976562 5.15039 1.10156C5.2793 1.22266 5.34375 1.41016 5.34375 1.66406C5.34375 1.91797 5.2793 2.10742 5.15039 2.23242C5.02539 2.35352 4.85938 2.43359 4.65234 2.47266C4.44922 2.51172 4.23047 2.53125 3.99609 2.53125H2.60156V4.05469H3.33984C3.57422 4.05469 3.79297 4.07227 3.99609 4.10742C4.20312 4.13867 4.36914 4.2168 4.49414 4.3418C4.62305 4.46289 4.6875 4.65625 4.6875 4.92188C4.6875 5.1875 4.625 5.38281 4.5 5.50781C4.375 5.62891 4.20898 5.70703 4.00195 5.74219C3.79883 5.77344 3.57812 5.78906 3.33984 5.78906H2.60156V7.65234C2.60156 7.90625 2.58594 8.13477 2.55469 8.33789C2.52344 8.54102 2.44531 8.70312 2.32031 8.82422C2.19531 8.94141 1.99219 9 1.71094 9C1.42969 9 1.22656 8.94141 1.10156 8.82422C0.976562 8.70703 0.898438 8.54688 0.867188 8.34375C0.835938 8.14062 0.820312 7.91016 0.820312 7.65234V2.14453C0.820312 1.89062 0.835938 1.66211 0.867188 1.45898C0.898438 1.25586 0.976562 1.0957 1.10156 0.978516C1.22656 0.857422 1.42969 0.796875 1.71094 0.796875Z" fill="#2E8BC0"/>
<path d="M4.65234 0.855469L4.4635 1.83748L4.46694 1.83813L4.65234 0.855469ZM5.15039 1.10156L4.44328 1.80867L4.45433 1.81972L4.46572 1.83041L5.15039 1.10156ZM5.15039 2.23242L5.84619 2.95066L5.84654 2.95032L5.15039 2.23242ZM4.65234 2.47266L4.46693 1.48999L4.4635 1.49065L4.65234 2.47266ZM2.60156 2.53125V1.53125H1.60156V2.53125H2.60156ZM2.60156 4.05469H1.60156V5.05469H2.60156V4.05469ZM3.99609 4.10742L3.82555 5.09277L3.83618 5.09461L3.84684 5.09622L3.99609 4.10742ZM4.49414 4.3418L3.78703 5.0489L3.79808 5.05995L3.80947 5.07064L4.49414 4.3418ZM4.5 5.50781L5.1958 6.22605L5.2015 6.22053L5.20711 6.21492L4.5 5.50781ZM4.00195 5.74219L4.15401 6.73056L4.1617 6.72938L4.16937 6.72807L4.00195 5.74219ZM2.60156 5.78906V4.78906H1.60156V5.78906H2.60156ZM2.32031 8.82422L3.00425 9.55376L3.01023 9.54816L3.01611 9.54246L2.32031 8.82422ZM1.10156 0.978516L1.7855 1.70805L1.79148 1.70245L1.79736 1.69676L1.10156 0.978516ZM1.71094 1.79688H3.99609V-0.203125H1.71094V1.79688ZM3.99609 1.79688C4.1753 1.79688 4.33018 1.81184 4.4635 1.83748L4.84119 -0.126538C4.56825 -0.179025 4.28564 -0.203125 3.99609 -0.203125V1.79688ZM4.46694 1.83813C4.49313 1.84307 4.49799 1.84719 4.48914 1.84282C4.48473 1.84064 4.47778 1.83676 4.46926 1.83071C4.4607 1.82462 4.45183 1.81722 4.44328 1.80867L5.8575 0.394456C5.56478 0.101742 5.20378 -0.0581305 4.83775 -0.127193L4.46694 1.83813ZM4.46572 1.83041C4.39788 1.76669 4.36388 1.69927 4.34972 1.65809C4.33751 1.62257 4.34375 1.61823 4.34375 1.66406H6.34375C6.34375 1.25618 6.23957 0.752702 5.83507 0.372714L4.46572 1.83041ZM4.34375 1.66406C4.34375 1.70952 4.33761 1.70708 4.3487 1.6745C4.36156 1.63671 4.39252 1.57438 4.45424 1.51452L5.84654 2.95032C6.23848 2.57025 6.34375 2.07471 6.34375 1.66406H4.34375ZM4.4546 1.51418C4.46344 1.50562 4.47225 1.49854 4.48031 1.49296C4.48832 1.48743 4.49444 1.48416 4.49768 1.48261C4.50406 1.47953 4.49625 1.48446 4.46694 1.48999L4.83775 3.45532C5.19618 3.38769 5.55339 3.2343 5.84619 2.95066L4.4546 1.51418ZM4.4635 1.49065C4.33018 1.51629 4.1753 1.53125 3.99609 1.53125V3.53125C4.28564 3.53125 4.56825 3.50715 4.84119 3.45466L4.4635 1.49065ZM3.99609 1.53125H2.60156V3.53125H3.99609V1.53125ZM1.60156 2.53125V4.05469H3.60156V2.53125H1.60156ZM2.60156 5.05469H3.33984V3.05469H2.60156V5.05469ZM3.33984 5.05469C3.52466 5.05469 3.68578 5.06858 3.82555 5.09277L4.16664 3.12207C3.90016 3.07595 3.62378 3.05469 3.33984 3.05469V5.05469ZM3.84684 5.09622C3.86784 5.09939 3.86605 5.10179 3.85008 5.09427C3.83262 5.08606 3.80926 5.07113 3.78703 5.0489L5.20125 3.63469C4.89878 3.33222 4.52349 3.1757 4.14535 3.11862L3.84684 5.09622ZM3.80947 5.07064C3.73578 5.00142 3.70263 4.93033 3.69048 4.89386C3.68019 4.86301 3.6875 4.86579 3.6875 4.92188H5.6875C5.6875 4.51837 5.59131 4.00044 5.17882 3.61295L3.80947 5.07064ZM3.6875 4.92188C3.6875 4.98009 3.6802 4.98781 3.6882 4.9628C3.69772 4.93306 3.72596 4.86764 3.79289 4.80071L5.20711 6.21492C5.59576 5.82626 5.6875 5.32108 5.6875 4.92188H3.6875ZM3.8042 4.78957C3.81403 4.78005 3.82409 4.77197 3.83368 4.7654C3.8432 4.75889 3.85098 4.75474 3.85594 4.75241C3.86582 4.74776 3.86128 4.75176 3.83454 4.7563L4.16937 6.72807C4.5337 6.66621 4.898 6.51454 5.1958 6.22605L3.8042 4.78957ZM3.8499 4.75382C3.70427 4.77622 3.53505 4.78906 3.33984 4.78906V6.78906C3.6212 6.78906 3.89338 6.77066 4.15401 6.73056L3.8499 4.75382ZM3.33984 4.78906H2.60156V6.78906H3.33984V4.78906ZM1.60156 5.78906V7.65234H3.60156V5.78906H1.60156ZM1.60156 7.65234C1.60156 7.86668 1.58827 8.04311 1.56632 8.18583L3.54306 8.48995C3.5836 8.22642 3.60156 7.94582 3.60156 7.65234H1.60156ZM1.56632 8.18583C1.56365 8.20318 1.56229 8.19742 1.57181 8.17767C1.58208 8.15636 1.59961 8.1301 1.62452 8.10598L3.01611 9.54246C3.32476 9.24345 3.48485 8.8683 3.54306 8.48995L1.56632 8.18583ZM1.63637 8.09468C1.71314 8.02271 1.78156 7.9997 1.79706 7.99523C1.80967 7.99159 1.78669 8 1.71094 8V10C2.09258 10 2.60603 9.92709 3.00425 9.55376L1.63637 8.09468ZM1.71094 8C1.63519 8 1.6122 7.99159 1.62482 7.99523C1.64031 7.9997 1.70873 8.02271 1.7855 8.09468L0.417621 9.55376C0.815844 9.92709 1.32929 10 1.71094 10V8ZM1.7855 8.09468C1.81525 8.12257 1.8359 8.15301 1.84799 8.17779C1.85919 8.20074 1.85818 8.20875 1.85556 8.19169L-0.121184 8.49581C-0.0629318 8.87445 0.0986536 9.25472 0.417621 9.55376L1.7855 8.09468ZM1.85556 8.19169C1.83371 8.04965 1.82031 7.87144 1.82031 7.65234H-0.179688C-0.179688 7.94887 -0.161831 8.2316 -0.121184 8.49581L1.85556 8.19169ZM1.82031 7.65234V2.14453H-0.179688V7.65234H1.82031ZM1.82031 2.14453C1.82031 1.93019 1.8336 1.75377 1.85556 1.61104L-0.121184 1.30693C-0.161727 1.57045 -0.179688 1.85106 -0.179688 2.14453H1.82031ZM1.85556 1.61104C1.85818 1.59399 1.85919 1.60199 1.84799 1.62495C1.8359 1.64972 1.81525 1.68017 1.7855 1.70805L0.417621 0.248978C0.0986536 0.548011 -0.0629318 0.928287 -0.121184 1.30693L1.85556 1.61104ZM1.79736 1.69676C1.7219 1.76985 1.65261 1.79486 1.63331 1.80062C1.61757 1.80531 1.6375 1.79688 1.71094 1.79688V-0.203125C1.32256 -0.203125 0.803867 -0.125383 0.405767 0.260275L1.79736 1.69676Z" fill="#124472" mask="url(#path-1-outside-1_1_3)"/>
</svg>
